<svg width="512" height="512" viewBox="0 0 512 512" fill="none" xmlns="http://www.w3.org/2000/svg">
<path d="M511.5 296.625C511 300.5 510.517 302.837 510.278 303.5C506.655 313.551 499.743 321.95 491.054 327.401C470.22 340.472 449.436 353.624 428.611 366.709C402.612 383.045 376.588 399.343 350.581 415.666C330.167 428.478 309.849 441.449 289.26 453.973C285.945 455.989 281.436 456.855 277.473 456.874C232.995 457.077 188.515 457.01 143.394 456.704C141.438 452.818 140.208 449.21 138.793 445.676C135.526 437.516 131.34 429.168 128.5 421C170.635 420.965 213.128 420.735 254.771 421.433C268.492 421.663 279.867 418.438 291.472 411.01C351.62 372.51 412.249 334.759 472.633 296.625C474.8 295.257 476.162 292.614 477.899 290.565C475.62 288.897 473.519 286.168 471.03 285.75C461.414 284.137 451.623 283.694 441.5 282.5C428.77 283.181 417.002 285.592 406.351 291.777C375.859 309.483 345.664 327.702 315.077 345.24C309.204 348.608 302.129 351.498 295.525 351.688C270.056 352.418 244.554 351.965 219.065 351.932C218.787 351.931 218.51 351.638 218.217 351.472C218.217 340.087 218.217 328.706 218.217 317.036C220.372 317.036 222.182 317.036 223.991 317.036C246.483 317.036 268.976 316.944 291.467 317.105C296.518 317.141 299.53 314.791 300.575 310.345C301.389 306.879 301.65 303.067 301.147 299.552C300.131 292.437 297.188 290.24 290.07 290.182C276.076 290.07 262.082 289.984 248.088 289.872C230.162 289.729 212.61 289.236 194.971 283.578C169.557 275.428 146.22 280.801 127.895 301.736C126.293 303.566 124.751 305.448 123.325 307.134C117.926 303.768 112.945 300.662 107.965 297.557C104.839 295.136 101.882 292.441 98.5393 290.37C95.129 288.256 94.2642 286.768 97.1567 283.118C112.454 263.815 131.802 250.813 156.018 246.283C174.157 242.89 192.339 244.777 209.888 250.568C216.915 252.887 223.836 254.333 231.257 254.076C240.24 253.766 249.244 253.883 258.235 254.035C271.515 254.26 284.877 253.859 298.048 255.225C313.828 256.862 325.078 265.982 331.923 280.294C333.535 283.665 334.638 287.279 336.168 291.286C346.852 285.069 357.094 279.169 367.278 273.171C383.216 263.784 398.844 253.742 417.327 249.831C429.276 247.301 441.19 245.716 453.578 246.709C465.071 247.631 476.116 249.743 486.952 253.462C498.06 257.275 506 266.438 510.278 277.5C510.669 278.512 511 279.5 511.5 283C512 286.5 512 292.751 511.5 296.625Z" fill="#3B4E52"/>
<path d="M128.5 421.5C131.82 429.638 135.526 437.516 138.793 445.676C140.208 449.21 141.438 452.818 142.932 456.722C143.242 464.618 139.305 469.552 132.941 473.02C118.531 480.873 104.384 489.252 89.6742 496.491C81.7559 500.388 71.3806 499.775 66.4035 488.81C61.3798 477.743 56.6981 466.52 51.7438 455.42C41.6965 432.91 31.5724 410.435 21.468 387.95C15.6836 375.079 9.89538 362.209 4.05086 349.365C3.39648 347.927 2.24769 346.707 1.5 343C0.752313 339.293 0.500011 336.5 1.25254 333C2.00507 329.5 8 325.5 8 325.5C8 325.5 30.0649 312.633 44.6385 304.78C49.083 302.385 53.6127 300.137 58.1808 297.986C67.2493 293.716 75.9575 296.612 80.1429 305.643C83.8151 313.566 86.9597 321.733 90.6704 330.357C91.0958 331.573 91.0526 332.281 91.3001 332.866C99.9192 353.247 108.566 373.616 117.259 394.339C121.156 403.545 124.653 412.645 128.5 421.5Z" fill="#669F85"/>
<path d="M390.732 18.0326C403.808 21.4537 414.661 27.7778 423.255 37.761C430.866 46.6039 435.498 56.6773 437.079 68.378C440.689 95.0844 429.832 117.095 414.732 137.536C408.111 146.498 400.607 154.967 392.581 162.702C373.824 180.78 352.665 195.85 330.599 209.622C329.473 210.324 326.894 209.835 325.61 208.976C308.482 197.523 291.956 185.365 276.656 171.419C258.645 155.003 243.179 136.8 232.524 114.869C225.664 100.75 221.779 85.6666 223.076 69.8194C224.989 46.453 239.63 24.5862 263.532 18.0048C282.6 12.7544 300.398 15.4182 314.673 30.3455C320.372 36.3056 325.087 43.2066 330.16 49.5653C334.875 38.9449 341.963 28.9627 353.586 22.7492C365.299 16.4881 377.575 15.8016 390.732 18.0326Z" fill="#669F85"/>
<path d="M117 394.116C108.357 373.745 99.9192 353.247 91.3001 332.866C91.0526 332.281 91.0958 331.573 91.0015 330.544C96.4687 319.467 101.938 308.768 107.686 297.813C112.945 300.662 117.926 303.768 123.325 307.134C124.751 305.448 126.293 303.566 127.895 301.736C146.22 280.801 169.557 275.428 194.971 283.579C212.61 289.236 230.162 289.729 248.088 289.872C262.082 289.984 276.076 290.07 290.07 290.182C297.188 290.24 300.131 292.437 301.148 299.552C301.65 303.067 301.389 306.879 300.575 310.345C299.53 314.791 296.518 317.141 291.467 317.105C268.976 316.944 246.483 317.036 223.991 317.036C222.182 317.036 220.372 317.036 218.217 317.036C218.217 328.706 218.217 340.087 218.217 351.473C218.51 351.638 218.787 351.931 219.065 351.932C244.554 351.965 270.056 352.418 295.525 351.688C302.129 351.498 309.204 348.608 315.077 345.24C345.664 327.702 375.859 309.483 406.351 291.777C417.002 285.592 429.343 282.852 442 282.5C438.031 285.871 433.288 288.933 428.841 291.739C377.203 324.326 325.508 356.822 273.905 389.464C268.793 392.698 263.66 394.144 257.545 394.116C210.767 393.906 163.779 394.122 117 394.116Z" fill="#FEFEFF"/>
<path d="M117 394.116C163.729 393.77 210.767 393.906 257.545 394.116C263.66 394.144 268.793 392.698 273.905 389.464C325.508 356.822 377.203 324.326 428.841 291.739C433.288 288.933 437.509 285.768 441.908 282.44C451.674 283.261 461.414 284.137 471.03 285.75C473.519 286.168 478 287.5 478 290.5C478 293.5 474.8 295.257 472.633 296.625C412.249 334.759 351.62 372.51 291.472 411.01C279.867 418.438 268.492 421.663 254.771 421.433C213.128 420.735 170.635 420.965 128.5 421C124.173 412.175 120.897 403.322 117 394.116Z" fill="#E5E7E8"/>
</svg>
