<svg width="24" height="24" viewBox="0 0 24 24" fill="none" xmlns="http://www.w3.org/2000/svg">
<path d="M21.3 10.08C21.019 9.74263 20.6674 9.47107 20.27 9.28445C19.8726 9.09784 19.439 9.00073 19 8.99998H14.44L15 7.56998C15.2329 6.94387 15.3105 6.27059 15.2261 5.6079C15.1416 4.94522 14.8977 4.31291 14.5152 3.76521C14.1327 3.21752 13.623 2.77078 13.0299 2.46333C12.4369 2.15587 11.778 1.99688 11.11 1.99998C10.9176 2.00038 10.7295 2.05626 10.5681 2.16091C10.4067 2.26555 10.2789 2.41453 10.2 2.58998L7.35 8.99998H5C4.20435 8.99998 3.44129 9.31605 2.87868 9.87866C2.31607 10.4413 2 11.2043 2 12V19C2 19.7956 2.31607 20.5587 2.87868 21.1213C3.44129 21.6839 4.20435 22 5 22H17.73C18.4318 21.9997 19.1113 21.7535 19.6503 21.304C20.1893 20.8545 20.5537 20.2303 20.68 19.54L21.95 12.54C22.0286 12.1074 22.011 11.6628 21.8987 11.2377C21.7864 10.8126 21.582 10.4173 21.3 10.08ZM7 20H5C4.73478 20 4.48043 19.8946 4.29289 19.7071C4.10536 19.5196 4 19.2652 4 19V12C4 11.7348 4.10536 11.4804 4.29289 11.2929C4.48043 11.1053 4.73478 11 5 11H7V20Z" fill="#0092E4"/>
</svg>
